<?xml version="1.0" standalone="no"?><!DOCTYPE svg PUBLIC "-//W3C//DTD SVG 1.1//EN" "http://www.w3.org/Graphics/SVG/1.1/DTD/svg11.dtd"><svg t="1663728022743" class="icon" viewBox="0 0 1024 1024" version="1.1" xmlns="http://www.w3.org/2000/svg" p-id="1406" xmlns:xlink="http://www.w3.org/1999/xlink" width="200" height="200"><path d="M979.18781 1008.006095H61.586286c-20.675048 0-37.205333-19.090286-37.205334-42.983619 0-23.868952 16.530286-42.959238 37.205334-42.959238h921.746285c20.675048 0 37.205333 19.090286 37.205334 42.959238-4.144762 23.893333-20.675048 42.983619-41.350095 42.983619z" fill="#36a3f7" p-id="1407"></path><path d="M94.646857 62.585905v907.215238c0 19.114667-16.530286 38.204952-33.060571 38.204952h-4.144762c-16.530286 0-33.060571-19.090286-33.060572-38.204952V62.585905C24.380952 43.471238 40.911238 24.380952 57.441524 24.380952h4.144762c20.650667 0 33.060571 19.090286 33.060571 38.204953zM545.572571 390.095238L877.714286 116.516571 838.851048 73.142857l-293.302858 243.565714-162.523428-133.461333-236.739048 126.780952 31.792762 50.029715 201.411048-110.08L545.572571 390.095238z" fill="#36a3f7" p-id="1408"></path><path d="M592.65219 463.238095h125.976381v463.238095h-125.976381V463.238095z m207.84762 231.619048H926.47619V926.47619h-125.97638v-231.619047z m-409.380572-77.214476h125.952V926.47619h-125.952V617.642667zM170.666667 772.071619h125.976381V926.47619H170.666667v-154.404571z" fill="#36a3f7" p-id="1409"></path></svg>